<svg width="47" height="60" viewBox="0 0 47 60" fill="none" xmlns="http://www.w3.org/2000/svg">
<path d="M21.1726 0H31V45.6552C25.9662 46.6203 22.2605 47 18.251 47C6.24807 46.9873 0 41.552 0 31.1132C0 21.0554 6.62749 14.5279 16.8976 14.5279C18.4913 14.5279 19.7054 14.6551 21.1726 15.0359V0ZM21.5169 23.2635C20.3659 22.8825 19.4175 22.7555 18.2032 22.7555C13.2327 22.7555 10.3616 25.8286 10.3616 31.2144C10.3616 36.458 13.1063 39.3533 18.1401 39.3533C19.2277 39.3533 20.1131 39.2912 21.5169 39.1007V23.2635Z" fill="#2BA977"/>
<path d="M47 15.5371V38.0819C47 45.8458 46.4314 49.5795 44.7625 52.7984C43.2049 55.8932 41.1529 57.8446 36.9128 60L28 55.7041C32.2401 53.6887 34.292 51.9078 35.6025 49.19C36.9745 46.4108 37.4072 43.1918 37.4072 34.7251V15.5373L47 15.5371ZM36.4392 0H46.0443V9.98224H36.4392V0Z" fill="#2BA977"/>
</svg>
