<svg width="16" height="16" viewBox="0 0 16 16" fill="none" xmlns="http://www.w3.org/2000/svg">
<path d="M4.46645 0.263608C5.05959 0.466234 5.62368 0.747324 6.14406 1.09958C6.87946 0.909026 7.63572 0.813428 8.39482 0.815061C9.17876 0.815061 9.93507 0.914163 10.644 1.09878C11.1642 0.746867 11.728 0.466048 12.3208 0.263608C12.8711 0.0741962 13.655 -0.232699 14.1208 0.289183C14.4366 0.644031 14.5155 1.23864 14.5716 1.69259C14.6347 2.19929 14.6497 2.85943 14.484 3.51478C15.1179 4.34356 15.5 5.33218 15.5 6.40951C15.5 8.04149 14.6269 9.45849 13.3345 10.4399C12.7122 10.9058 12.0225 11.2714 11.2898 11.5236C11.4587 11.9153 11.5527 12.3484 11.5527 12.8032V15.2008C11.5527 15.4128 11.4695 15.616 11.3215 15.7659C11.1734 15.9158 10.9726 16 10.7632 16H6.02643C5.81705 16 5.61625 15.9158 5.46819 15.7659C5.32014 15.616 5.23697 15.4128 5.23697 15.2008V14.4088C4.48303 14.5023 3.85067 14.4192 3.31304 14.1882C2.75094 13.9468 2.35937 13.5728 2.0649 13.2148C1.78543 12.8759 1.4807 12.1119 1.04017 11.9632C0.941788 11.93 0.850818 11.8776 0.772457 11.8088C0.694097 11.7401 0.629882 11.6564 0.583477 11.5625C0.48976 11.3729 0.47428 11.1534 0.540444 10.9522C0.606607 10.7511 0.748995 10.5847 0.936282 10.4899C1.12357 10.395 1.34042 10.3793 1.53912 10.4463C2.0649 10.6237 2.40753 11.0074 2.642 11.3158C3.02094 11.8114 3.32883 12.4587 3.92882 12.7169C4.17593 12.8232 4.53829 12.8927 5.10513 12.8144L5.23697 12.7872C5.23878 12.3523 5.32824 11.9223 5.49986 11.5236C4.76713 11.2714 4.0774 10.9058 3.45515 10.4399C2.16279 9.45849 1.28965 8.04229 1.28965 6.40951C1.28965 5.33378 1.67096 4.34596 2.30332 3.51798C2.13753 2.86263 2.15174 2.20089 2.2149 1.69339L2.21884 1.66302C2.27648 1.19788 2.34358 0.650425 2.66568 0.289183C3.13147 -0.232699 3.91619 0.0749955 4.46566 0.264408L4.46645 0.263608Z" fill="#3E75C3"/>
</svg>
