<svg width="18" height="16" viewBox="0 0 18 16" fill="none" xmlns="http://www.w3.org/2000/svg">
<path d="M6.66549 10.1359L11.1359 2.06059C11.1974 1.94937 11.2589 1.83962 11.3145 1.72475C11.365 1.62086 11.4074 1.51623 11.4352 1.40282C11.4937 1.1643 11.4776 0.915535 11.3869 0.687988C11.2988 0.463807 11.1394 0.274836 10.9333 0.150215C10.731 0.0277597 10.4931 -0.0220528 10.2587 0.00900461C10.0246 0.0404661 9.81017 0.150947 9.64116 0.32362C9.56068 0.404102 9.49483 0.49556 9.4341 0.592871C9.36679 0.699694 9.30606 0.810907 9.2446 0.92212L8.96218 1.43209L8.67902 0.921388C8.61756 0.810907 8.55684 0.699694 8.48952 0.592871C8.43023 0.495815 8.36083 0.405315 8.28246 0.322888C8.11754 0.152113 7.9001 0.0415906 7.66494 0.00900461C7.4308 -0.0218821 7.19312 0.0279244 6.99108 0.150215C6.78495 0.274836 6.62555 0.463807 6.53745 0.687988C6.44704 0.915363 6.43015 1.16535 6.48916 1.40282C6.51696 1.51623 6.5594 1.62086 6.60915 1.72475C6.66476 1.83962 6.72622 1.94937 6.78768 2.06059L7.70079 3.70975L4.14345 10.1352H1.70555C1.58263 10.1352 1.45971 10.1352 1.33752 10.1425C1.22631 10.1491 1.11802 10.163 1.00974 10.1945C0.78292 10.2603 0.583908 10.3993 0.440502 10.5954C0.297136 10.7928 0.219858 11.0304 0.219727 11.2743C0.219595 11.5182 0.296617 11.7559 0.43977 11.9534C0.583908 12.1495 0.782188 12.2878 1.00974 12.3544C1.11802 12.3858 1.22631 12.3997 1.33752 12.4063C1.45971 12.4136 1.58263 12.4136 1.70555 12.4136H11.2881C11.3172 12.3496 11.3417 12.2836 11.3613 12.2161C11.6649 11.18 10.9106 10.1352 9.87237 10.1352L6.66549 10.1359ZM2.49794 12.786L1.91846 13.8835C1.85846 13.9977 1.79774 14.1103 1.74359 14.2281C1.69363 14.3342 1.65441 14.445 1.62653 14.5589C1.56782 14.8026 1.58414 15.0584 1.67335 15.2927C1.76188 15.5254 1.91773 15.7193 2.11747 15.8451C2.31722 15.971 2.54842 16.0222 2.7767 15.9893C3.00644 15.9571 3.2157 15.8444 3.38105 15.6673C3.46007 15.5832 3.52446 15.4903 3.58446 15.3908C3.65031 15.281 3.70957 15.1669 3.76957 15.0527L4.61025 13.4606C4.5444 13.3509 3.91736 12.3851 2.49794 12.786ZM17.5599 10.5867C17.4188 10.3956 17.2184 10.2567 16.99 10.1916C16.883 10.1619 16.7731 10.1444 16.6622 10.1396C16.5393 10.1323 16.4171 10.1323 16.2942 10.1323H13.8643L10.6523 4.41435C10.2307 4.85668 9.95582 5.41826 9.86505 6.02254C9.74713 6.77832 9.8879 7.55176 10.2645 8.21753L14.1233 15.09C14.1848 15.1998 14.2455 15.3095 14.3128 15.4149C14.3743 15.51 14.4401 15.6 14.5199 15.6812C14.6889 15.851 14.9033 15.9593 15.1381 15.9907C15.373 16.0222 15.6086 15.9732 15.8127 15.8517C16.018 15.7289 16.1776 15.5424 16.2671 15.3205C16.3586 15.0959 16.3739 14.8508 16.3154 14.6152C16.2865 14.5054 16.246 14.3989 16.1947 14.2976C16.1398 14.1842 16.0776 14.076 16.0161 13.9662L15.1264 12.3814H16.2942C16.4171 12.3814 16.5393 12.3814 16.6622 12.3748C16.7734 12.3683 16.8817 12.3544 16.99 12.3236C17.2188 12.2584 17.4195 12.1192 17.5607 11.9278C17.7037 11.7336 17.7806 11.4987 17.7802 11.2576C17.7806 11.0165 17.7037 10.7815 17.5607 10.5874" fill="url(#paint0_linear_4061_328)"/>
<defs>
<linearGradient id="paint0_linear_4061_328" x1="8.99995" y1="0" x2="8.99995" y2="16" gradientUnits="userSpaceOnUse">
<stop stop-color="#18BFFB"/>
<stop offset="1" stop-color="#2072F3"/>
</linearGradient>
</defs>
</svg>
