<svg width="60" height="61" viewBox="0 0 60 61" fill="none" xmlns="http://www.w3.org/2000/svg">
<g clip-path="url(#clip0_4061_6)">
<path d="M30.5 36.75C33.5376 36.75 36 34.2876 36 31.25C36 28.2124 33.5376 25.75 30.5 25.75C27.4624 25.75 25 28.2124 25 31.25C25 34.2876 27.4624 36.75 30.5 36.75Z" fill="#61DAFB"/>
<path d="M29.5 42.75C45.2401 42.75 58 37.6013 58 31.25C58 24.8987 45.2401 19.75 29.5 19.75C13.7599 19.75 1 24.8987 1 31.25C1 37.6013 13.7599 42.75 29.5 42.75Z" stroke="#61DAFB" stroke-width="2.63885"/>
<path d="M20.9094 36.1162C28.8416 50.1634 39.342 59.1485 44.3627 56.1848C49.3833 53.2211 47.0229 39.4311 39.0906 25.3838C31.1584 11.3366 20.658 2.35154 15.6373 5.31521C10.6167 8.27888 12.9771 22.0689 20.9094 36.1162Z" stroke="#61DAFB" stroke-width="2.63885"/>
<path d="M21.9094 25.3838C13.9771 39.4311 11.6167 53.2211 16.6373 56.1848C21.658 59.1485 32.1584 50.1634 40.0906 36.1162C48.0229 22.0689 50.3833 8.27888 45.3627 5.31521C40.342 2.35154 29.8416 11.3366 21.9094 25.3838Z" stroke="#61DAFB" stroke-width="2.63885"/>
</g>
<defs>
<clipPath id="clip0_4061_6">
<rect width="60" height="60" fill="white" transform="translate(0 0.75)"/>
</clipPath>
</defs>
</svg>
