<svg width="12" height="12" viewBox="0 0 12 12" fill="none" xmlns="http://www.w3.org/2000/svg">
<path d="M5.95325 0C4.87534 0.000199599 3.8177 0.295243 2.89315 0.853658C1.9686 1.41207 1.21182 2.21291 0.703544 3.17075C0.195264 4.12859 -0.0454511 5.20749 0.00707501 6.29238C0.0596012 7.37726 0.403399 8.42743 1.00179 9.33086C1.60019 10.2343 2.43074 10.9571 3.40484 11.4222C4.37894 11.8872 5.46006 12.0771 6.53287 11.9716C7.60568 11.8661 8.62994 11.4691 9.49639 10.8229C10.3628 10.1768 11.039 9.30579 11.4527 8.3028C11.6557 7.8108 11.1693 7.3164 10.6798 7.5168C9.84095 7.8592 8.90952 7.89454 8.04749 7.61666C7.18545 7.33877 6.44732 6.76525 5.96143 5.99581C5.47555 5.22637 5.27263 4.30967 5.38797 3.40509C5.50331 2.50052 5.92961 1.66528 6.59275 1.0446L6.6386 0.9966C6.96668 0.6186 6.70588 0.00480001 6.18726 0.00480001H6.02887L5.98838 0.00119998L5.95325 0Z" fill="white"/>
<path d="M5.95325 0C4.87534 0.000199599 3.8177 0.295243 2.89315 0.853658C1.9686 1.41207 1.21182 2.21291 0.703544 3.17075C0.195264 4.12859 -0.0454511 5.20749 0.00707501 6.29238C0.0596012 7.37726 0.403399 8.42743 1.00179 9.33086C1.60019 10.2343 2.43074 10.9571 3.40484 11.4222C4.37894 11.8872 5.46006 12.0771 6.53287 11.9716C7.60568 11.8661 8.62994 11.4691 9.49639 10.8229C10.3628 10.1768 11.039 9.30579 11.4527 8.3028C11.6557 7.8108 11.1693 7.3164 10.6798 7.5168C9.84095 7.8592 8.90952 7.89454 8.04749 7.61666C7.18545 7.33877 6.44732 6.76525 5.96143 5.99581C5.47555 5.22637 5.27263 4.30967 5.38797 3.40509C5.50331 2.50052 5.92961 1.66528 6.59275 1.0446L6.6386 0.9966C6.96668 0.6186 6.70588 0.00480001 6.18726 0.00480001H6.02887L5.98838 0.00119998L5.95325 0Z" fill="url(#paint0_linear_17_2401)"/>
<defs>
<linearGradient id="paint0_linear_17_2401" x1="-0.0375134" y1="2.75117" x2="11.6239" y2="2.91018" gradientUnits="userSpaceOnUse">
<stop stop-color="#FC365A"/>
<stop offset="0.41388" stop-color="#F21279"/>
<stop offset="0.92888" stop-color="#D549C7"/>
</linearGradient>
</defs>
</svg>
