<svg width="18" height="18" viewBox="0 0 18 18" fill="none" xmlns="http://www.w3.org/2000/svg">
<path d="M9.00001 14.8333C9.20412 14.8334 9.40113 14.9083 9.55366 15.0439C9.70618 15.1796 9.80363 15.3665 9.82751 15.5692L9.83334 15.6667V16.5C9.83311 16.7124 9.75178 16.9167 9.60597 17.0711C9.46016 17.2256 9.26088 17.3185 9.04885 17.331C8.83681 17.3434 8.62803 17.2744 8.46515 17.1381C8.30227 17.0018 8.1976 16.8084 8.17251 16.5975L8.16668 16.5V15.6667C8.16668 15.4457 8.25448 15.2337 8.41076 15.0774C8.56704 14.9211 8.779 14.8333 9.00001 14.8333ZM14.2608 13.0917L14.3392 13.1608L14.9225 13.7442C15.072 13.8941 15.1587 14.0954 15.1652 14.307C15.1717 14.5186 15.0973 14.7248 14.9573 14.8836C14.8173 15.0424 14.6221 15.1419 14.4113 15.162C14.2005 15.1821 13.99 15.1212 13.8225 14.9917L13.7442 14.9225L13.1608 14.3392C13.017 14.1956 12.9306 14.0045 12.9179 13.8017C12.9051 13.5989 12.9669 13.3984 13.0916 13.238C13.2163 13.0776 13.3954 12.9682 13.595 12.9305C13.7947 12.8928 14.0012 12.9294 14.1758 13.0333L14.2608 13.0917ZM4.83918 13.1608C4.98266 13.3043 5.06885 13.4952 5.08159 13.6978C5.09432 13.9003 5.03272 14.1005 4.90835 14.2608L4.83918 14.3392L4.25585 14.9225C4.10588 15.072 3.90465 15.1587 3.69303 15.1652C3.4814 15.1717 3.27525 15.0973 3.11645 14.9573C2.95764 14.8173 2.85809 14.622 2.83801 14.4113C2.81794 14.2005 2.87884 13.99 3.00835 13.8225L3.07751 13.7442L3.66085 13.1608C3.81712 13.0046 4.02904 12.9168 4.25001 12.9168C4.47098 12.9168 4.68291 13.0046 4.83918 13.1608ZM2.33335 8.16667C2.54575 8.1669 2.75004 8.24823 2.90449 8.39404C3.05893 8.53985 3.15187 8.73913 3.16432 8.95116C3.17677 9.1632 3.10778 9.37198 2.97146 9.53486C2.83513 9.69774 2.64176 9.80241 2.43085 9.8275L2.33335 9.83333H1.50001C1.28761 9.8331 1.08332 9.75177 0.928872 9.60596C0.774426 9.46015 0.681483 9.26087 0.669036 9.04884C0.656588 8.8368 0.725575 8.62802 0.8619 8.46514C0.998225 8.30226 1.1916 8.19759 1.40251 8.1725L1.50001 8.16667H2.33335ZM16.5 8.16667C16.7124 8.1669 16.9167 8.24823 17.0711 8.39404C17.2256 8.53985 17.3185 8.73913 17.331 8.95116C17.3434 9.1632 17.2744 9.37198 17.1381 9.53486C17.0018 9.69774 16.8084 9.80241 16.5975 9.8275L16.5 9.83333H15.6667C15.4543 9.8331 15.25 9.75177 15.0955 9.60596C14.9411 9.46015 14.8481 9.26087 14.8357 9.04884C14.8233 8.8368 14.8922 8.62802 15.0286 8.46514C15.1649 8.30226 15.3583 8.19759 15.5692 8.1725L15.6667 8.16667H16.5ZM4.17751 3.00833L4.25585 3.0775L4.83918 3.66083C4.98864 3.8108 5.07541 4.01203 5.08187 4.22365C5.08833 4.43528 5.014 4.64143 4.87397 4.80023C4.73394 4.95904 4.53872 5.05859 4.32795 5.07867C4.11718 5.09874 3.90667 5.03784 3.73918 4.90833L3.66085 4.83917L3.07751 4.25583C2.93425 4.11223 2.84829 3.92131 2.83573 3.71886C2.82318 3.51641 2.8849 3.31633 3.00931 3.15613C3.13373 2.99593 3.31231 2.88661 3.51157 2.84866C3.71083 2.81071 3.91709 2.84675 4.09168 2.95L4.17751 3.00833ZM14.9225 3.0775C15.066 3.221 15.1522 3.41191 15.1649 3.61443C15.1777 3.81696 15.1161 4.01716 14.9917 4.1775L14.9225 4.25583L14.3392 4.83917C14.1892 4.98862 13.988 5.0754 13.7764 5.08186C13.5647 5.08832 13.3586 5.01399 13.1998 4.87396C13.041 4.73393 12.9414 4.53871 12.9213 4.32794C12.9013 4.11717 12.9622 3.90666 13.0917 3.73917L13.1608 3.66083L13.7442 3.0775C13.9005 2.92128 14.1124 2.83351 14.3333 2.83351C14.5543 2.83351 14.7662 2.92128 14.9225 3.0775ZM9.00001 0.666668C9.20412 0.666695 9.40113 0.741631 9.55366 0.877264C9.70618 1.0129 9.80363 1.19979 9.82751 1.4025L9.83334 1.5V2.33333C9.83311 2.54573 9.75178 2.75003 9.60597 2.90447C9.46016 3.05892 9.26088 3.15186 9.04885 3.16431C8.83681 3.17676 8.62803 3.10777 8.46515 2.97145C8.30227 2.83512 8.1976 2.64175 8.17251 2.43083L8.16668 2.33333V1.5C8.16668 1.27899 8.25448 1.06703 8.41076 0.910746C8.56704 0.754465 8.779 0.666668 9.00001 0.666668ZM9.00001 4.83333C9.81641 4.83329 10.6148 5.07308 11.2961 5.52292C11.9774 5.97276 12.5115 6.61283 12.8321 7.36364C13.1528 8.11444 13.2458 8.94289 13.0996 9.74609C12.9534 10.5493 12.5745 11.2919 12.0099 11.8815C11.4453 12.4712 10.7199 12.8821 9.92379 13.063C9.1277 13.244 8.29599 13.1871 7.53196 12.8994C6.76793 12.6117 6.10525 12.1059 5.62623 11.4448C5.1472 10.7837 4.87294 9.99646 4.83751 9.18083L4.83335 9L4.83751 8.81917C4.88411 7.74646 5.34302 6.73315 6.11853 5.99055C6.89404 5.24795 7.92629 4.8334 9.00001 4.83333Z" fill="white"/>
</svg>
